<?xml version="1.0" encoding="iso-8859-1"?>
<!-- Generator: Adobe Illustrator 16.0.0, SVG Export Plug-In . SVG Version: 6.00 Build 0)  -->
<!DOCTYPE svg PUBLIC "-//W3C//DTD SVG 1.1//EN" "http://www.w3.org/Graphics/SVG/1.1/DTD/svg11.dtd">
<svg version="1.1" id="Capa_1" xmlns="http://www.w3.org/2000/svg" xmlns:xlink="http://www.w3.org/1999/xlink" x="0px" y="0px"
	 width="82px" height="82px" viewBox="0 0 82 82" style="enable-background:new 0 0 82 82;" xml:space="preserve">
<g>
	<g>
		<path d="M41,0C18.393,0,0,18.393,0,41c0,22.607,18.393,41,41,41c22.605,0,41-18.393,41-41C82,18.393,63.605,0,41,0z M41,80
			C19.494,80,2,62.506,2,41C2,19.495,19.494,2,41,2c21.504,0,39,17.495,39,39C80,62.506,62.504,80,41,80z"/>
		<path d="M58.855,53.814h-8.041v-1.166h4.271c0.555,0,1-0.447,1-1c0-0.551-0.445-1-1-1H44.994c-0.553,0-1,0.449-1,1
			c0,0.553,0.447,1,1,1h3.82v1.166H33.484V42.201l2.79-2.789c1.175,1.279,2.855,2.086,4.726,2.086c0.424,0,0.838-0.044,1.24-0.123
			l0.964,4.891c0.095,0.479,0.513,0.811,0.979,0.811c0.062,0,0.129-0.008,0.193-0.021l9.461-1.863
			c0.262-0.053,0.488-0.205,0.639-0.426c0.147-0.221,0.203-0.488,0.148-0.75l-3.953-20.047c0.123-0.212,0.176-0.468,0.111-0.725
			c-0.055-0.229-0.191-0.408-0.361-0.544l-0.781-3.965c-0.053-0.26-0.203-0.489-0.426-0.637c-0.221-0.148-0.488-0.202-0.75-0.15
			l-1.748,0.345c0.018-0.1,0.028-0.201,0.014-0.307c-0.09-0.545-0.605-0.914-1.149-0.825l-4.746,0.781
			c-0.546,0.09-0.914,0.604-0.825,1.149c0.031,0.187,0.123,0.343,0.237,0.478l-1.242,0.245c-0.542,0.104-0.896,0.632-0.788,1.174
			l1.485,7.538c-1.122,0.233-2.159,0.763-3.014,1.544l-1.464-1.464c-0.391-0.391-1.023-0.391-1.414,0l-9.42,9.419
			c-0.103,0.102-0.172,0.229-0.215,0.367c-0.05,0.119-0.078,0.25-0.078,0.387v15.038h-0.959c-0.552,0-1,0.447-1,1v9.041
			c0,0.554,0.448,1,1,1h35.713c0.553,0,1-0.446,1-1v-9.041C59.855,54.262,59.408,53.814,58.855,53.814z M57.855,57.732H24.142
			v-1.918h0.408c0.16,0.107,0.343,0.188,0.551,0.188h7.384c0.208,0,0.392-0.078,0.551-0.188h16.229
			c0.158,0.107,0.342,0.188,0.551,0.188c0.207,0,0.391-0.078,0.551-0.188h7.49v1.918H57.855z M41,30.648
			c2.4,0,4.352,1.925,4.412,4.312c-0.014,0.404-0.072,0.798-0.189,1.17c-0.193,0.629-0.529,1.202-0.978,1.68
			c-0.446,0.478-1.005,0.862-1.649,1.112c0,0,0,0,0,0.001c-2.019,0.785-4.167,0.01-5.286-1.678
			c-0.078-0.118-0.182-0.212-0.299-0.287c-0.273-0.574-0.438-1.208-0.438-1.885C36.573,32.633,38.56,30.648,41,30.648z
			 M44.973,44.898l-0.834-4.228c1.957-1.102,3.285-3.198,3.285-5.6c0-0.051-0.006-0.1-0.01-0.151c0.001-0.038,0.01-0.075,0.01-0.114
			c0-0.214-0.014-0.426-0.033-0.635c-0.006-0.068-0.021-0.134-0.027-0.201c-0.02-0.14-0.035-0.279-0.062-0.416
			c-0.017-0.079-0.037-0.156-0.057-0.235c-0.029-0.122-0.059-0.243-0.094-0.362c-0.023-0.082-0.055-0.161-0.082-0.242
			c-0.039-0.112-0.076-0.223-0.123-0.332c-0.031-0.081-0.068-0.16-0.105-0.239c-0.047-0.104-0.096-0.207-0.146-0.307
			c-0.041-0.079-0.086-0.156-0.131-0.233c-0.058-0.097-0.111-0.192-0.174-0.285c-0.05-0.075-0.101-0.148-0.15-0.221
			c-0.062-0.09-0.131-0.179-0.198-0.266c-0.056-0.07-0.11-0.139-0.17-0.207c-0.07-0.084-0.146-0.165-0.226-0.245
			c-0.062-0.064-0.121-0.128-0.188-0.19c-0.079-0.077-0.163-0.151-0.245-0.224c-0.067-0.058-0.134-0.116-0.203-0.172
			c-0.088-0.07-0.179-0.136-0.271-0.202c-0.069-0.051-0.141-0.102-0.211-0.15c-0.098-0.064-0.198-0.123-0.301-0.182
			c-0.07-0.042-0.142-0.086-0.215-0.125c-0.109-0.059-0.228-0.112-0.341-0.165c-0.067-0.031-0.136-0.066-0.203-0.095
			c-0.144-0.06-0.288-0.11-0.438-0.16c-0.045-0.015-0.09-0.034-0.135-0.049c-0.194-0.06-0.396-0.112-0.599-0.154
			c-0.047-0.01-0.095-0.014-0.144-0.023c-0.146-0.026-0.287-0.053-0.437-0.07l-0.383-1.941l7.446-1.746l3.685,18.684L44.973,44.898z
			 M48.402,22.773l-7.448,1.746l-0.579-2.94l7.5-1.479L48.402,22.773z M26.101,39.143l8.42-8.419l1.004,1.004
			c-0.599,0.976-0.95,2.119-0.95,3.346c0,0.941,0.208,1.832,0.573,2.639l-3.37,3.369c-0.188,0.188-0.293,0.441-0.293,0.707v12.025
			h-5.384V39.143z M24.142,62.855V59.73h33.713v3.125H24.142z"/>
		<path d="M47.219,47.803c-0.543,0.104-0.898,0.625-0.799,1.168c0.09,0.48,0.51,0.815,0.98,0.815c0.062,0,0.123-0.005,0.188-0.017
			l4.82-0.904c0.543-0.102,0.898-0.625,0.801-1.167c-0.104-0.543-0.628-0.899-1.169-0.8L47.219,47.803z"/>
		<path d="M41,37.655c1.424,0,2.581-1.159,2.581-2.583c0-1.424-1.157-2.582-2.581-2.582c-1.426,0-2.583,1.158-2.583,2.582
			C38.417,36.496,39.575,37.655,41,37.655z M41,34.49c0.32,0,0.581,0.261,0.581,0.582c0,0.321-0.261,0.583-0.581,0.583
			c-0.321,0-0.583-0.261-0.583-0.583C40.417,34.752,40.678,34.49,41,34.49z"/>
	</g>
</g>
<g>
</g>
<g>
</g>
<g>
</g>
<g>
</g>
<g>
</g>
<g>
</g>
<g>
</g>
<g>
</g>
<g>
</g>
<g>
</g>
<g>
</g>
<g>
</g>
<g>
</g>
<g>
</g>
<g>
</g>
</svg>
